<mxfile host="app.diagrams.net" agent="Mozilla/5.0 (Windows NT 10.0; Win64; x64) AppleWebKit/537.36 (KHTML, like Gecko) Chrome/134.0.0.0 Safari/537.36" version="26.1.1">
  <diagram name="Page-1" id="jvXgWAVLtYPbXe_PSLay">
    <mxGraphModel dx="1050" dy="522" grid="1" gridSize="10" guides="1" tooltips="1" connect="1" arrows="1" fold="1" page="1" pageScale="1" pageWidth="850" pageHeight="1100" math="0" shadow="0">
      <root>
        <mxCell id="0" />
        <mxCell id="1" parent="0" />
        <mxCell id="WvdBtTrVRl0-v-813iRN-1" value="" style="rounded=0;whiteSpace=wrap;html=1;fillColor=none;dashed=1;dashPattern=8 8;" vertex="1" parent="1">
          <mxGeometry x="90" y="70" width="190" height="380" as="geometry" />
        </mxCell>
        <mxCell id="WvdBtTrVRl0-v-813iRN-2" value="&lt;font style=&quot;font-size: 18px;&quot;&gt;Data Warehouse&lt;/font&gt;" style="rounded=1;whiteSpace=wrap;html=1;strokeColor=none;" vertex="1" parent="1">
          <mxGeometry x="540" y="50" width="155" height="30" as="geometry" />
        </mxCell>
        <mxCell id="WvdBtTrVRl0-v-813iRN-3" value="" style="rounded=0;whiteSpace=wrap;html=1;fillColor=none;dashed=1;dashPattern=8 8;" vertex="1" parent="1">
          <mxGeometry x="360" y="60" width="490" height="380" as="geometry" />
        </mxCell>
        <mxCell id="WvdBtTrVRl0-v-813iRN-4" value="&lt;font style=&quot;font-size: 18px;&quot;&gt;Sources&lt;/font&gt;" style="rounded=1;whiteSpace=wrap;html=1;strokeColor=none;" vertex="1" parent="1">
          <mxGeometry x="115" y="50" width="120" height="30" as="geometry" />
        </mxCell>
        <mxCell id="WvdBtTrVRl0-v-813iRN-5" value="" style="rounded=0;whiteSpace=wrap;html=1;fillColor=none;dashed=1;dashPattern=8 8;" vertex="1" parent="1">
          <mxGeometry x="930" y="70" width="190" height="380" as="geometry" />
        </mxCell>
        <mxCell id="WvdBtTrVRl0-v-813iRN-6" value="&lt;font style=&quot;font-size: 18px;&quot;&gt;Consume&lt;/font&gt;" style="rounded=1;whiteSpace=wrap;html=1;strokeColor=none;" vertex="1" parent="1">
          <mxGeometry x="965" y="50" width="120" height="30" as="geometry" />
        </mxCell>
        <mxCell id="WvdBtTrVRl0-v-813iRN-7" value="&lt;font style=&quot;font-size: 20px;&quot;&gt;&lt;b&gt;Bronze Layer&lt;/b&gt;&lt;/font&gt;" style="rounded=0;whiteSpace=wrap;html=1;fillColor=#ffe6cc;strokeColor=#d79b00;" vertex="1" parent="1">
          <mxGeometry x="380" y="100" width="140" height="30" as="geometry" />
        </mxCell>
        <mxCell id="WvdBtTrVRl0-v-813iRN-8" value="" style="rounded=0;whiteSpace=wrap;html=1;" vertex="1" parent="1">
          <mxGeometry x="380" y="130" width="140" height="290" as="geometry" />
        </mxCell>
        <mxCell id="WvdBtTrVRl0-v-813iRN-9" value="&lt;font style=&quot;font-size: 20px;&quot;&gt;&lt;b&gt;Silver Layer&lt;/b&gt;&lt;/font&gt;" style="rounded=0;whiteSpace=wrap;html=1;fillColor=#f5f5f5;strokeColor=#666666;fontColor=#333333;" vertex="1" parent="1">
          <mxGeometry x="540" y="100" width="140" height="30" as="geometry" />
        </mxCell>
        <mxCell id="WvdBtTrVRl0-v-813iRN-10" value="" style="rounded=0;whiteSpace=wrap;html=1;fillColor=#f5f5f5;strokeColor=#666666;fontColor=#333333;" vertex="1" parent="1">
          <mxGeometry x="540" y="130" width="140" height="290" as="geometry" />
        </mxCell>
        <mxCell id="WvdBtTrVRl0-v-813iRN-11" value="&lt;font style=&quot;font-size: 20px;&quot;&gt;&lt;b&gt;Gold Layer&lt;/b&gt;&lt;/font&gt;" style="rounded=0;whiteSpace=wrap;html=1;fillColor=#fff2cc;strokeColor=#d6b656;" vertex="1" parent="1">
          <mxGeometry x="695" y="100" width="140" height="30" as="geometry" />
        </mxCell>
        <mxCell id="WvdBtTrVRl0-v-813iRN-13" value="" style="rounded=0;whiteSpace=wrap;html=1;" vertex="1" parent="1">
          <mxGeometry x="695" y="130" width="140" height="290" as="geometry" />
        </mxCell>
        <mxCell id="WvdBtTrVRl0-v-813iRN-14" value="&lt;b&gt;CRM&lt;/b&gt;" style="image;aspect=fixed;html=1;points=[];align=center;fontSize=12;image=img/lib/azure2/general/Folder_Blank.svg;" vertex="1" parent="1">
          <mxGeometry x="130" y="180" width="69" height="56.00000000000001" as="geometry" />
        </mxCell>
        <mxCell id="WvdBtTrVRl0-v-813iRN-15" value="" style="verticalLabelPosition=bottom;html=1;verticalAlign=top;align=center;strokeColor=none;fillColor=#00BEF2;shape=mxgraph.azure.cloud_services_configuration_file;pointerEvents=1;" vertex="1" parent="1">
          <mxGeometry x="170" y="210" width="47.5" height="50" as="geometry" />
        </mxCell>
        <mxCell id="WvdBtTrVRl0-v-813iRN-16" value="&lt;b&gt;ERP&lt;/b&gt;" style="image;aspect=fixed;html=1;points=[];align=center;fontSize=12;image=img/lib/azure2/general/Folder_Blank.svg;" vertex="1" parent="1">
          <mxGeometry x="140" y="310" width="69" height="56.00000000000001" as="geometry" />
        </mxCell>
        <mxCell id="WvdBtTrVRl0-v-813iRN-17" value="" style="verticalLabelPosition=bottom;html=1;verticalAlign=top;align=center;strokeColor=none;fillColor=#00BEF2;shape=mxgraph.azure.cloud_services_configuration_file;pointerEvents=1;" vertex="1" parent="1">
          <mxGeometry x="190" y="340" width="47.5" height="50" as="geometry" />
        </mxCell>
        <mxCell id="WvdBtTrVRl0-v-813iRN-23" value="" style="endArrow=none;dashed=1;html=1;dashPattern=1 3;strokeWidth=2;rounded=0;entryX=1.002;entryY=0.855;entryDx=0;entryDy=0;entryPerimeter=0;exitX=0.008;exitY=0.855;exitDx=0;exitDy=0;exitPerimeter=0;" edge="1" parent="1" source="WvdBtTrVRl0-v-813iRN-1" target="WvdBtTrVRl0-v-813iRN-1">
          <mxGeometry width="50" height="50" relative="1" as="geometry">
            <mxPoint x="80" y="440" as="sourcePoint" />
            <mxPoint x="130" y="390" as="targetPoint" />
          </mxGeometry>
        </mxCell>
        <mxCell id="WvdBtTrVRl0-v-813iRN-24" value="Object Type: CSV Files&lt;div&gt;Interface: Files in folder&lt;br&gt;&lt;div&gt;&lt;br&gt;&lt;/div&gt;&lt;/div&gt;" style="rounded=1;whiteSpace=wrap;html=1;strokeColor=none;" vertex="1" parent="1">
          <mxGeometry x="104.5" y="400" width="165.5" height="50" as="geometry" />
        </mxCell>
        <mxCell id="WvdBtTrVRl0-v-813iRN-25" value="" style="html=1;verticalLabelPosition=bottom;align=center;labelBackgroundColor=#ffffff;verticalAlign=top;strokeWidth=2;strokeColor=#d79b00;shadow=0;dashed=0;shape=mxgraph.ios7.icons.data;fillColor=#ffe6cc;" vertex="1" parent="1">
          <mxGeometry x="425" y="151" width="55" height="59" as="geometry" />
        </mxCell>
        <mxCell id="WvdBtTrVRl0-v-813iRN-26" value="" style="html=1;verticalLabelPosition=bottom;align=center;labelBackgroundColor=#ffffff;verticalAlign=top;strokeWidth=2;strokeColor=#666666;shadow=0;dashed=0;shape=mxgraph.ios7.icons.data;fillColor=#f5f5f5;fontColor=#333333;" vertex="1" parent="1">
          <mxGeometry x="582.5" y="151" width="55" height="59" as="geometry" />
        </mxCell>
        <mxCell id="WvdBtTrVRl0-v-813iRN-27" value="" style="html=1;verticalLabelPosition=bottom;align=center;labelBackgroundColor=#ffffff;verticalAlign=top;strokeWidth=2;strokeColor=#d6b656;shadow=0;dashed=0;shape=mxgraph.ios7.icons.data;fillColor=#fff2cc;" vertex="1" parent="1">
          <mxGeometry x="737.5" y="151" width="55" height="59" as="geometry" />
        </mxCell>
        <mxCell id="WvdBtTrVRl0-v-813iRN-28" value="" style="shape=singleArrow;whiteSpace=wrap;html=1;fillColor=#dae8fc;strokeColor=#6c8ebf;" vertex="1" parent="1">
          <mxGeometry x="280" y="236" width="100" height="60" as="geometry" />
        </mxCell>
        <mxCell id="WvdBtTrVRl0-v-813iRN-29" value="" style="shape=singleArrow;whiteSpace=wrap;html=1;fillColor=#dae8fc;strokeColor=#6c8ebf;" vertex="1" parent="1">
          <mxGeometry x="510" y="150" width="50" height="50" as="geometry" />
        </mxCell>
        <mxCell id="WvdBtTrVRl0-v-813iRN-30" value="" style="shape=singleArrow;whiteSpace=wrap;html=1;fillColor=#dae8fc;strokeColor=#6c8ebf;" vertex="1" parent="1">
          <mxGeometry x="670" y="151" width="50" height="50" as="geometry" />
        </mxCell>
        <mxCell id="WvdBtTrVRl0-v-813iRN-31" value="&lt;font&gt;Object Type:Table&lt;/font&gt;" style="rounded=1;whiteSpace=wrap;html=1;strokeColor=none;" vertex="1" parent="1">
          <mxGeometry x="390" y="300" width="120" height="30" as="geometry" />
        </mxCell>
        <mxCell id="WvdBtTrVRl0-v-813iRN-32" value="&lt;font style=&quot;font-size: 18px;&quot;&gt;Clean standardized Data&lt;/font&gt;" style="rounded=1;whiteSpace=wrap;html=1;strokeColor=none;" vertex="1" parent="1">
          <mxGeometry x="550" y="220" width="120" height="60" as="geometry" />
        </mxCell>
        <mxCell id="WvdBtTrVRl0-v-813iRN-33" value="&lt;font style=&quot;font-size: 18px;&quot;&gt;Business Ready Data&lt;/font&gt;" style="rounded=1;whiteSpace=wrap;html=1;strokeColor=none;" vertex="1" parent="1">
          <mxGeometry x="705" y="230" width="120" height="60" as="geometry" />
        </mxCell>
        <mxCell id="WvdBtTrVRl0-v-813iRN-34" value="" style="endArrow=none;dashed=1;html=1;dashPattern=1 3;strokeWidth=2;rounded=0;" edge="1" parent="1">
          <mxGeometry width="50" height="50" relative="1" as="geometry">
            <mxPoint x="400" y="290" as="sourcePoint" />
            <mxPoint x="510" y="290" as="targetPoint" />
          </mxGeometry>
        </mxCell>
        <mxCell id="WvdBtTrVRl0-v-813iRN-35" value="&lt;font style=&quot;font-size: 18px;&quot;&gt;Raw Data&lt;/font&gt;" style="rounded=1;whiteSpace=wrap;html=1;strokeColor=none;" vertex="1" parent="1">
          <mxGeometry x="410" y="230" width="120" height="30" as="geometry" />
        </mxCell>
      </root>
    </mxGraphModel>
  </diagram>
</mxfile>
